<?xml version="1.0" encoding="iso-8859-1"?>
<!-- Uploaded to: SVG Repo, www.svgrepo.com, Generator: SVG Repo Mixer Tools -->
<svg height="800px" width="800px" version="1.1" id="Layer_1" xmlns="http://www.w3.org/2000/svg" xmlns:xlink="http://www.w3.org/1999/xlink" 
	 viewBox="0 0 512 512" xml:space="preserve">
<path style="fill:#AED5F3;" d="M512,335.038c0-48.214-32.226-92.122-78.369-106.781l-16.51-5.243l-0.834-17.303
	c-3.802-78.912-68.714-140.728-147.778-140.728c-70.521,0-131.577,50.199-145.176,119.361l-3.348,17.03l-17.135,2.761
	C44.217,213.586,0,265.46,0,324.798c0,67.391,54.828,122.218,122.219,122.218h277.804C461.767,447.016,512,396.782,512,335.038z"/>
<path style="fill:#93C7EF;" d="M433.631,228.257l-16.51-5.243l-0.834-17.303c-3.802-78.912-68.714-140.728-147.778-140.728
	c-4.703,0-9.359,0.24-13.966,0.677v381.357h145.48c61.745,0,111.977-50.234,111.977-111.978
	C512,286.824,479.774,242.917,433.631,228.257z"/>
<path style="fill:#006DF0;" d="M197.818,237.562v69.818c0,46.545,58.182,69.818,58.182,69.818s58.182-23.273,58.182-69.818v-69.818
	H197.818z"/>
<path style="fill:#003778;" d="M256,377.198c0,0,58.182-23.273,58.182-69.818v-69.818h-59.64"/>
<path style="fill:#FFFFFF;" d="M256,395.998l-6.483-2.594c-2.824-1.13-69.154-28.324-69.154-86.024v-87.273h151.273v87.273
	c0,57.7-66.33,84.894-69.154,86.024L256,395.998z M215.273,255.016v52.364c0,13.537,7.375,26.401,21.923,38.235
	c6.879,5.597,13.904,9.715,18.807,12.276c12.938-6.749,40.726-24.298,40.726-50.511v-52.364H215.273z"/>
</svg>